<svg xmlns="http://www.w3.org/2000/svg" viewBox="0 0 1641.64 885.79"><defs><style>.cls-2{fill:#f2c0c0}.cls-10,.cls-4{fill:#dbabab}</style></defs><title>Ресурс 1</title><g id="Слой_2" data-name="Слой 2"><g id="Слой_2-2" data-name="Слой 2" class="cls-1"><path class="cls-2" d="M495.24 874.48c0-7 .5-24 .5-24h6v-179h-222v-22h-232l1 201.5s324 .93 420.5.93c4.5 17.09 9.5 20.59 26 22.57z"/></g><g id="Слой_3" data-name="Слой 3" class="cls-3"><path class="cls-4" d="M501.74 850.5v-179h-63v-51h300l3 229-240 1z"/></g><g id="Слой_4" data-name="Слой 4" class="cls-5"><path class="cls-4" d="M134.74 572.5h150v-305h-187v25H0v188h134.74v92z"/></g><g id="Слой_5" data-name="Слой 5" class="cls-6"><path class="cls-4" d="M0 292.5v-275h97.74c.5-9.5 10.5-17 23.5-17.5v17.5h85.5l101 43v138h-24l-1 68-184.74.75-.25 25.25z"/></g><g id="Слой_6" data-name="Слой 6" class="cls-7"><path class="cls-4" d="M307.74 60.5l183 73v149h-19v117h-137v-19h-51v-188h23l1-132z"/></g><g id="Слой_7" data-name="Слой 7" class="cls-8"><path class="cls-4" d="M555.74 488.5l-1-215h67v-88l121 49.5v251.5l-187 2zM899.24 853l1-232.5h138.5l-1 232.5h-32.5v29.5h-65l.5-29.5h-41.5z"/></g><g id="Слой_8" data-name="Слой 8" class="cls-9"><path class="cls-4" d="M1038.74 852.33v-231h68v-175.5h-57v-21h-67.5l.5-93.33 273.5 110 1.5 192.33h-47v218.5h-46.5l.5 31.5h-64.5l-.5-31.5h-61z"/></g><g id="Слой_10" data-name="Слой 10" class="cls-8"><path class="cls-4" d="M1210.74 852.5v-226h44v-71h122v330.29l-114-.67v-32.31l-52-.31z"/></g><path class="cls-10" d="M1546.14 850.99h95.5V595.5l-260-104.5v275.49h163.6l.9 84.5z" id="Слой_32" data-name="Слой 32"/></g></svg>