<svg xmlns="http://www.w3.org/2000/svg" viewBox="0 0 1635 928.67"><defs><style>.cls-1,.cls-15,.cls-3{fill:#dbabab}</style></defs><title>podval</title><g id="Слой_2" data-name="Слой 2"><g id="Слой_37" data-name="Слой 37"><path class="cls-1" d="M1538.33 895.67H1635l-.33-254L1367 534.33v269h170.67l.66 92.34z"/><g id="Слой_38" data-name="Слой 38" class="cls-2"><path class="cls-3" d="M1241.67 482.33v137h128v-85l-128-52z"/></g><g id="Слой_39" data-name="Слой 39" class="cls-4"><path class="cls-3" d="M1241.67 619.67V483.33l-261-105v172.34h113v68l148 1z"/></g><g id="Слой_40" data-name="Слой 40" class="cls-2"><path class="cls-3" d="M1039.67 548.67h54v67h-54z"/></g><g id="Слой_41" data-name="Слой 41" class="cls-5"><path class="cls-3" d="M979.67 548.67h60v67h-60z"/></g><g id="Слой_42" data-name="Слой 42" class="cls-6"><path class="cls-3" d="M899.67 618.67v-206h80v-36l-256-102v345l176-1z"/></g><g id="Слой_43" data-name="Слой 43" class="cls-7"><path class="cls-3" d="M722.83 274.83l.84 344.84h-176l.66-415.34 174.5 70.5z"/></g><g id="Слой_44" data-name="Слой 44" class="cls-8"><path class="cls-3" d="M547.67 620.33v-82.66h-83l-2.5 82.33 85.5.33z"/></g><g id="Слой_45" data-name="Слой 45" class="cls-9"><path class="cls-3" d="M327.67 583.67h80v-73h-81l1 73z"/></g><g id="Слой_46" data-name="Слой 46" class="cls-10"><path class="cls-3" d="M326.67 442.67h81v68h-81z"/></g><g id="Слой_47" data-name="Слой 47" class="cls-8"><path class="cls-3" d="M326.67 440.33h138v-65l84.5 2.5-.5-173.5-275-111 .33 152.84h52.17l.5 194.16z"/></g><g id="Слой_48" data-name="Слой 48" class="cls-11"><path class="cls-3" d="M273.5 245.42V93L41.67 0v67.33H0v178.34l273.5-.25z"/></g><g id="Слой_49" data-name="Слой 49" class="cls-12"><path class="cls-3" d="M0 332.33l81.67-.66v-21h198.66v214L1 524.33l-1-192z"/></g><g id="Слой_50" data-name="Слой 50" class="cls-13"><path class="cls-3" d="M41.67 524.33H281v95.33H41.67z"/></g><g id="Слой_51" data-name="Слой 51" class="cls-14"><path class="cls-15" d="M275.67 697.67h-233v193h388v-178h-156l1-15z"/></g><g id="Слой_52" data-name="Слой 52" class="cls-16"><path class="cls-3" d="M326.67 665.67h104v55h-104z"/></g><g id="Слой_53" data-name="Слой 53" class="cls-17"><path class="cls-3" d="M427.67 894.67v-220h291V895s-279.67-.33-291-.33z"/></g><g id="Слой_54" data-name="Слой 54" class="cls-18"><path class="cls-3" d="M718.67 894.67l-3.33-219h313l3.33 219h-32.34c-.66 0 .33 34 .33 34H934s.06-32.83-.5-32.83c-87.39-.01-202.7-1.17-214.83-1.17z"/></g><g id="Слой_55" data-name="Слой 55" class="cls-19"><path class="cls-3" d="M1031.67 675.67v219.66H1091v33h67v-33h45.67V674.67l-172 1z"/></g><g id="Слой_56" data-name="Слой 56" class="cls-20"><path class="cls-3" d="M1203.67 674.33V895h53.66l-.33 33h60.67V674.33h-114z"/></g></g></g></svg>