<svg xmlns="http://www.w3.org/2000/svg" viewBox="0 0 20 26"><defs><style>.cls-1{fill:none}</style></defs><title>eco</title><g id="Слой_2" data-name="Слой 2"><path class="cls-1" d="M15.88 2.54a.65.65 0 0 1-.42-.33A4.18 4.18 0 0 0 11.61 0a4.92 4.92 0 0 0-1.27.16 1.36 1.36 0 0 1-.69 0A4.92 4.92 0 0 0 8.39 0a4.18 4.18 0 0 0-3.86 2.21.65.65 0 0 1-.42.33A5.31 5.31 0 0 0 0 7.36a4.85 4.85 0 0 0 2.47 4.09.7.7 0 0 1 .35.79 3.36 3.36 0 0 0-.14 1.06c.06 2.12 2.14 3.84 4.72 3.92h.23V25h-.77a.53.53 0 1 0 0 1h6.28a.53.53 0 1 0 0-1h-.77v-7.78h.23c2.58-.08 4.66-1.8 4.72-3.92a3.36 3.36 0 0 0-.14-1.06.7.7 0 0 1 .35-.79A4.85 4.85 0 0 0 20 7.36a5.31 5.31 0 0 0-4.12-4.82zM11.11 25H8.89v-7.92A5.48 5.48 0 0 0 10 16.7a5.5 5.5 0 0 0 1.11.38zm5.66-14.34a1.64 1.64 0 0 0-.77 1.82 2.5 2.5 0 0 1 .1.79 3.36 3.36 0 0 1-3.51 2.91 4.27 4.27 0 0 1-1.92-.38v-1.17l1.33-1.1a.46.46 0 0 0 0-.73.73.73 0 0 0-.89 0l-.45.37v-2.63l1.72-1.44a.46.46 0 0 0 0-.73.73.73 0 0 0-.89 0l-.86.71V5.19L12 4.09a.46.46 0 0 0 0-.73.73.73 0 0 0-.89 0L10 4.25l-1.08-.89a.73.73 0 0 0-.89 0 .46.46 0 0 0 0 .73l1.34 1.1v3.89L7 7.09a.73.73 0 0 0-.89 0 .46.46 0 0 0 0 .73l3.31 2.71v2.63l-.45-.37a.73.73 0 0 0-.89 0 .46.46 0 0 0 0 .73l1.34 1.1v1.18a4.27 4.27 0 0 1-1.92.38 3.36 3.36 0 0 1-3.51-2.91 2.5 2.5 0 0 1 .1-.79 1.64 1.64 0 0 0-.81-1.86 3.87 3.87 0 0 1-2-3.26 4.23 4.23 0 0 1 3.27-3.85 1.82 1.82 0 0 0 1.17-.95A2.89 2.89 0 0 1 8.39 1a3.42 3.42 0 0 1 .88.11 2.9 2.9 0 0 0 1.47 0 3.41 3.41 0 0 1 .87-.11 2.89 2.89 0 0 1 2.67 1.53 1.82 1.82 0 0 0 1.17.95 4.23 4.23 0 0 1 3.28 3.85 3.87 3.87 0 0 1-1.96 3.29zM13 7.09l-.15.12a.46.46 0 0 0 0 .73.73.73 0 0 0 .89 0l.15-.12a.46.46 0 0 0 0-.73.73.73 0 0 0-.89 0z" id="Слой_1-2" data-name="Слой 1"/></g></svg>