<svg xmlns="http://www.w3.org/2000/svg" viewBox="0 0 31 19"><defs><style>.cls-1{fill:none}</style></defs><title>fintess</title><g id="Слой_2" data-name="Слой 2"><path class="cls-1" d="M29.19 6.72h-.71V4.59a1.91 1.91 0 0 0-1.87-1.94h-1.25v-.71A1.91 1.91 0 0 0 23.49 0h-1.38a1.91 1.91 0 0 0-1.87 1.94v4.77h-9.48V1.94A1.91 1.91 0 0 0 8.89 0H7.5a1.91 1.91 0 0 0-1.86 1.94v1.32H4.38A1.91 1.91 0 0 0 2.51 5.2V7h-.7A1.88 1.88 0 0 0 0 8.92v1.43a1.88 1.88 0 0 0 1.81 1.94h.71v2.12a1.91 1.91 0 0 0 1.87 1.94h1.25v.71A1.91 1.91 0 0 0 7.5 19h1.39a1.91 1.91 0 0 0 1.87-1.94V12h9.48v5a1.91 1.91 0 0 0 1.87 2h1.39a1.91 1.91 0 0 0 1.87-1.94v-1.32h1.26a1.91 1.91 0 0 0 1.87-1.94V12h.71A1.88 1.88 0 0 0 31 10.08V8.66a1.88 1.88 0 0 0-1.81-1.94zM1.81 11.14a.76.76 0 0 1-.71-.8V8.92a.76.76 0 0 1 .71-.8h.71v3zm2.57 4.06a.79.79 0 0 1-.77-.8V5.2a.79.79 0 0 1 .77-.8h1.26v10.8H4.38zm5.28 1.85a.79.79 0 0 1-.77.8H7.5a.79.79 0 0 1-.77-.8V1.94a.79.79 0 0 1 .77-.8h1.39a.79.79 0 0 1 .77.8zm1.1-6.17v-3h9.48v3zm13.5 6.17a.79.79 0 0 1-.77.8h-1.38a.79.79 0 0 1-.77-.8V1.94a.79.79 0 0 1 .77-.8h1.39a.79.79 0 0 1 .77.8zm3.13-3.26a.79.79 0 0 1-.77.8h-1.26V3.79h1.26a.79.79 0 0 1 .77.8zm2.51-3.71a.76.76 0 0 1-.71.8h-.71v-3h.71a.76.76 0 0 1 .71.8z" id="Слой_1-2" data-name="Слой 1"/></g></svg>