<svg xmlns="http://www.w3.org/2000/svg" viewBox="0 0 26 28"><defs><style>.cls-1{fill:none}</style></defs><title>infrastructure</title><g id="Слой_2" data-name="Слой 2"><path class="cls-1" d="M25.59 27.18h-.93l-2.49-26A1.28 1.28 0 0 0 20.9 0H5.1a1.28 1.28 0 0 0-1.27 1.16l-2.49 26H.41a.41.41 0 0 0 0 .82H3a.41.41 0 0 0 0-.82h-.84L4.43 3.45h6v12a1.29 1.29 0 0 0-.87 1.22v1.78h-.47a.41.41 0 0 0 0 .82h.46v1.44a1.29 1.29 0 0 0 .45 2.47h6a1.29 1.29 0 0 0 .41-2.51v-1.44h.46a.41.41 0 0 0 0-.82h-.46v-1.78a1.29 1.29 0 0 0-.87-1.22v-12h6l2.27 23.73H23a.41.41 0 0 0 0 .86h2.61a.41.41 0 0 0 0-.82zM16 22.36h-6a.47.47 0 0 1 0-.93h6a.47.47 0 0 1 0 .93zm-.41-1.75h-5.22v-4a.46.46 0 0 1 .46-.47h4.34a.46.46 0 0 1 .46.47zm-.87-5.26h-3.48V3.45h3.53zm.81-12.71v-.48a.41.41 0 1 0-.81 0v.47h-3.48v-.47a.41.41 0 1 0-.81 0v.47H4.51l.13-1.39A.46.46 0 0 1 5.1.82h15.8a.46.46 0 0 1 .46.42l.13 1.39z" id="Слой_1-2" data-name="Слой 1"/></g></svg>