<svg xmlns="http://www.w3.org/2000/svg" viewBox="0 0 24 28.98"><defs><style>.cls-1{fill:none}</style></defs><title>interior</title><g id="Слой_2" data-name="Слой 2"><path class="cls-1" d="M23.65 16.56c0-1.25-.35-1.7-1.37-1.93a11.82 11.82 0 0 1 1.37-4.42V8h-.27C22.82 6.75 23 6.65 22 5.8v-.28h-.55l-.55-.83h-.55l-.28-.55h-.55v-.28l-1.65-.55-.28-.55-1.1-.28-.27-.55h-.55l-.82-1.1h-.55L14 .28h-.8V0c-1.45 0-3 0-3.85.55l-.82 1.1H8l-.27.55h-.58l-.28.55-1.65.55-.28.55-1.1.28v.28L3 4.69l-.28.55H2.2l-.28.55-1.1.83c-.32.46 0 .63-.55 1.1v2.76c.41 1.29 1.24 2.52 1.38 4.15l-1.1.28L.28 16H0v6.35a9.58 9.58 0 0 1 3 .28L3.3 29h1.37v-2.23h.28a15.19 15.19 0 0 1 .28-4.42 9.43 9.43 0 0 1 4.95 1.1l.28.55h.82v.28c1.07.31 2.49-.82 3-1.1a9.71 9.71 0 0 1 4.4-.83l.57 6.65h1.37l.27-6.62h3c.06-1.28.3-5.21-.24-5.82zM.82 8c.54-.48.23-.64.55-1.1l1.1-.83.27-.55h.56L3.57 5l.82-.28v-.3h.55v-.28h.56v-.28H6v-.27h.6v-.28h.55l.27-.55H8l.82-1.1C9.46 1.19 11.69 0 13.2.55v.28l1.1.28.82 1.1h.55l.27.55h.55l.28.55 1.65.55.28.55h.55v.28l1.1.28.55.83h.55l.82 1.1h.28c.32.46 0 .62.55 1.1a12.23 12.23 0 0 1-.82 4.69H22l-.28 1.66-.82.28-.55.83h-.28v2.48a13.14 13.14 0 0 1-2.75-.83l-8.8-.28-4.67 1.1c.08-1.89 0-3.15-1.65-3.31C1.91 12.12.77 11.21.82 8zm16.5 9.66v.28l1.92.28v.28h.28v.28H4.12v-.28l2.47-.83H8.8v-.28h6.32v.28zM4.12 28.43c-.73-.79-.59-4.42-.55-6.07h.83zm15.95-3v3h-.27c-.08-.5-.27-.55-.27-.55v-4.42h-.28v-.83h.28v-.28h.82c.03.96.19 2.54-.28 3.04zm3.3-3.59h-3v.28h-.28v-.28l-4.67.28c-.85.29-2.75 1.93-3.85 1.66v-.28h-.82v-.28h-.55v-.28h-.58l-.28-.55h-.82v-.28c-2.09-.73-5.44-.28-8-.28 0-1.83-.46-5.45.55-6.35v-.28h.82v-.28h.31a3.66 3.66 0 0 0 1.1.83V19h.27v.28h12.38c1.21 0 3.7.34 4.4-.28.73-.83-.23-2.68.28-3.59h.27c.65-.65 1-.34 1.92-.28v.28c.98 1.02.6 4.52.55 6.4zM7.7 14.91v.28h2.47v.28c.54.25 1.7 1 2.75.55l.28-.55h.55v-.28h2.47v-.28h.55v-.28h.55v-.28l.82-.28c.46-1.83 1.74-2.43 1.65-5V8h-.27c-.36-1.34-1.1-1.12-2.2-1.66v-.27h-.82a14.2 14.2 0 0 0-9.9.28h-.83l-.27.55h-.55c-.15.1-.23.37-.55.55-.74 4 .53 4.64 1.92 7.18zM4.67 11V8c.33-.58 2.8-1.68 3.58-1.93h2.2V5.8a17.31 17.31 0 0 1 6 .83h.82L19.25 8v2.76H19v.55h-.3v.83l-.55.28V13l-.55.28-.28.83-1.1.28v.28h-2.47c-.58.19-1.57 1.32-2.75.83l-.27-.55h-.55v-.28c-1.32-.48-2.11.49-3-.55C5.61 13.66 5.68 12 4.67 11z" id="Слой_1-2" data-name="Слой 1"/></g></svg>