<svg xmlns="http://www.w3.org/2000/svg" viewBox="0 0 24.03 33.01"><defs><style>.cls-1{fill:none}</style></defs><title>location</title><g id="Слой_2" data-name="Слой 2"><path class="cls-1" d="M12 6.51a5.65 5.65 0 1 0 5.58 5.65A5.62 5.62 0 0 0 12 6.51zm0 10.3a4.65 4.65 0 1 1 4.6-4.65 4.63 4.63 0 0 1-4.6 4.65zM12 0A12.1 12.1 0 0 0 0 12.16c0 6.54 11.16 20.1 11.64 20.68A.49.49 0 0 0 12 33a.49.49 0 0 0 .38-.18C12.87 32.26 24 18.7 24 12.16A12.1 12.1 0 0 0 12 0zm0 31.73c-2-2.46-11-14-11-19.57A11.11 11.11 0 0 1 12 1a11.11 11.11 0 0 1 11 11.16c.05 5.54-9 17.11-11 19.57z" id="Слой_1-2" data-name="Слой 1"/></g></svg>