<svg xmlns="http://www.w3.org/2000/svg" viewBox="0 0 22 46"><path fill="#fff" d="M10.5 0c-.3 0-.6.3-.6.6V8c0 .1 0 .3.1.4.1.2.4.3.6.3 5.1.1 9.2 4.2 9.2 9.3v2.7h-9.1v-1c.3-.1.5-.2.7-.4.3-.4.5-.8.5-1.3v-5.8c0-1-.7-1.8-1.7-1.8h-.1c-.5 0-.9.2-1.3.5-.3.4-.5.8-.5 1.3V18c0 .8.5 1.5 1.2 1.7v1H1.2V18c0-4.3 3-8.1 7.2-9.1.3-.1.5-.4.4-.7-.1-.4-.4-.6-.7-.5C3.4 8.8 0 13 0 17.9v16.5C-.1 40.2 4.5 44.9 10.3 45h.2c5.7 0 10.4-4.6 10.5-10.3V18c0-5.6-4.3-10.2-9.9-10.5V.6c0-.3-.3-.6-.6-.6zM9.4 18v-5.8c0-.2.1-.4.2-.5.1-.1.3-.2.5-.1.3 0 .6.2.7.6V18c0 .2-.1.4-.2.5-.1.1-.3.2-.5.1-.3 0-.6-.2-.7-.6zm10.4 16.5c0 2.5-.9 4.9-2.7 6.6-1.8 1.8-4.1 2.8-6.6 2.7-5.1 0-9.3-4-9.3-9.1V21.8h18.6v12.7z"/></svg>