<svg xmlns="http://www.w3.org/2000/svg" viewBox="0 0 27.97 21"><defs><style>.cls-1{fill:none}</style></defs><title>park</title><g id="Слой_2" data-name="Слой 2"><path class="cls-1" d="M22.67 3H5.3v1.2h17.37zm0 3H5.3v1.2h17.37zm5.24 7.51l-1.62-3.6a.48.48 0 0 0-.42-.31h-.73l.66-6.54A3.17 3.17 0 0 0 25.29.9a2 2 0 0 0-1.66-.9H4.35a2 2 0 0 0-1.66.9 3.17 3.17 0 0 0-.51 2.16l.65 6.54H2.1a.48.48 0 0 0-.42.31l-1.62 3.6a.73.73 0 0 0 0 .6.47.47 0 0 0 .42.3h1V21h1v-6.6h.48v3h1v-3h19.67v3h1v-3h1V21h1v-6.6h1a.47.47 0 0 0 .42-.3.73.73 0 0 0-.14-.59zM3.41 1.7a1.13 1.13 0 0 1 .94-.5h19.28a1.13 1.13 0 0 1 .94.5 1.79 1.79 0 0 1 .28 1.22l-.68 6.68H3.8l-.67-6.69a1.79 1.79 0 0 1 .28-1.21zM1.3 13.2l1.08-2.4h23.2l1.08 2.4z" id="Слой_1-2" data-name="Слой 1"/></g></svg>