<svg xmlns="http://www.w3.org/2000/svg" viewBox="0 0 32.01 29"><defs><style>.cls-1{fill:none}</style></defs><title>plans</title><g id="Слой_2" data-name="Слой 2"><path class="cls-1" d="M6.37 9h-.58v1.72H11v-.57H6.37zm25.11-7.38c-2.09-3.62-5.47-.25-7 1.3L21.37 6.1h-8.63v.57h8.08L18 9.53h-3v2.84l-1 .92v1.3A34 34 0 0 0 13 19c.78-.14 4-.68 4.42-1h1.3l2.69-2.89v12.17h-8.67v.57H22v-13.4l.11-.12 7.81-7.53 1-1.3.52-.26c.3-.43 0-.59.52-1 .04-1.13.04-2.1-.48-2.62zm-15.85 8.49h1.86l-.32.33-1.54 1.4zm1.54 6.56l-2.08.26a4.83 4.83 0 0 1 .52-2.08v-.26c.63-.22.54.42.78.52h.52c.17.61.07.49.52.78zm4.25-4l-.61.61A9.31 9.31 0 0 1 19 15.11v.26h-.26l-1.3-1.82-.78-.26 3.11-3.19h1.67zm0-3.15h-1.11l1.11-1.12zm4.08-.91l-3.5 3.5V7.8L25.76 4c1.13.31 1.43 1.28 2.34 1.82-.35 1.26-1.75 1.95-2.6 2.8zm3.64-3.89c-.29-.48-2-1.79-1.82-2.34h.26l.52-.78h1.3a3.46 3.46 0 0 0 1 .78c.08 1.47-.11 2.09-1.26 2.35zM8.68 3.24V6.1H6.37v1.72H0V29h11v-6.87h-.58v1.72H.58V8.39h6.37V6.67h2.31V3.33a2.94 2.94 0 0 1 1.74.48 5 5 0 0 1 1.16 2.29 2.28 2.28 0 0 0-.58-2.29C10.54 2.6 8.63 3 8.68 3.24zm1.74 21.19v4H.58v-4z" id="Слой_1-2" data-name="Слой 1"/></g></svg>