<svg xmlns="http://www.w3.org/2000/svg" xmlns:xlink="http://www.w3.org/1999/xlink" viewBox="0 0 131.75 89.2"><defs><style>.cls-1{fill:none}.cls-2{fill:url(#grad_pre_24)}.cls-3{fill:url(#grad_pre_24-2)}.cls-4{clip-path:url(#clip-path)}.cls-5{fill:url(#grad_pre_24-3)}.cls-6{fill:url(#grad_pre_24-4)}.cls-7{fill:url(#grad_pre_24-5)}.cls-8{clip-path:url(#clip-path-2)}.cls-9{fill:url(#grad_pre_24-6)}.cls-10{fill:url(#grad_pre_24-7)}.cls-11{fill:url(#grad_pre_24-8)}.cls-12{clip-path:url(#clip-path-3)}.cls-13{fill:url(#grad_pre_24-9)}.cls-14{fill:url(#grad_pre_24-10)}.cls-15{fill:url(#grad_pre_24-11)}.cls-16{clip-path:url(#clip-path-4)}.cls-17{fill:url(#grad_pre_24-12)}.cls-18{fill:url(#grad_pre_24-13)}.cls-19{fill:url(#grad_pre_24-14)}.cls-20{clip-path:url(#clip-path-5)}.cls-21{fill:url(#grad_pre_24-15)}.cls-22{fill:url(#grad_pre_24-16)}.cls-23{fill:url(#grad_pre_24-17)}.cls-24{clip-path:url(#clip-path-6)}.cls-25{fill:url(#grad_pre_24-18)}.cls-26{fill:url(#grad_pre_24-19)}.cls-27{fill:url(#grad_pre_24-20)}.cls-28{clip-path:url(#clip-path-7)}.cls-29{fill:url(#grad_pre_24-21)}.cls-30{fill:url(#grad_pre_24-22)}.cls-31{fill:url(#grad_pre_24-23)}.cls-32{clip-path:url(#clip-path-8)}.cls-33{fill:url(#grad_pre_24-24)}.cls-34{fill:#2dcb9f}</style><linearGradient id="grad_pre_24" x1="62.2" y1="710.44" x2="78.51" y2="710.44" gradientTransform="translate(0 -697.89)" gradientUnits="userSpaceOnUse"><stop offset="0" stop-color="#00553c"/><stop offset=".23" stop-color="#4c7960"/><stop offset=".46" stop-color="#368b6c"/><stop offset=".65" stop-color="#00a380"/><stop offset=".77" stop-color="#1eb491"/><stop offset="1" stop-color="#2dcb9f"/></linearGradient><linearGradient id="grad_pre_24-2" x1="62.2" y1="77.54" x2="78.51" y2="77.54" gradientTransform="matrix(1 0 0 -1 0 90.09)" xlink:href="#grad_pre_24"/><clipPath id="clip-path"><path class="cls-1" d="M73.9 5.6h-.2a17 17 0 0 0-2.2.4 41 41 0 0 0-9.3 3.2c6 2.7 11.3 6.6 13.1 10.4a25.82 25.82 0 0 0 3.2-10.5c.1-2.2-.5-3.6-3.3-3.6-.4 0-.8.1-1.3.1"/></clipPath><linearGradient id="grad_pre_24-3" x1="-410.36" y1="533.76" x2="-409.71" y2="533.76" gradientTransform="matrix(16.7 -2.11 -2.11 -16.7 8044.65 8063.1)" xlink:href="#grad_pre_24"/><linearGradient id="grad_pre_24-4" x1="56.3" y1="711.09" x2="64" y2="711.09" xlink:href="#grad_pre_24"/><linearGradient id="grad_pre_24-5" x1="56.3" y1="76.89" x2="64" y2="76.89" gradientTransform="matrix(1 0 0 -1 0 90.09)" xlink:href="#grad_pre_24"/><clipPath id="clip-path-2"><path class="cls-1" d="M58.1 8.1a2 2 0 0 1-.1.8 7.49 7.49 0 0 1-.5 1.6c-.2.5-.4.9-.6 1.3a6.36 6.36 0 0 1-.6 1c.7.9 1.3 1.8 2 2.8.3.5.6 1.1.9 1.6s.5 1.1.8 1.6a8.18 8.18 0 0 0 .8-.9 18.17 18.17 0 0 0 2-2.9 7.66 7.66 0 0 0 .7-1.7 3.09 3.09 0 0 0 .2-.8c.1-.3.1-.5.2-.8s.1-.5.1-.7v-.6c-.7-.4-1.3-.7-2-1.1-1.3-.6-2.6-1.2-3.9-1.7v.5"/></clipPath><linearGradient id="grad_pre_24-6" x1="-404.67" y1="565.31" x2="-404.03" y2="565.31" gradientTransform="matrix(25.11 31.18 31.18 -25.11 -7415.24 26813.87)" xlink:href="#grad_pre_24"/><linearGradient id="grad_pre_24-7" x1="45.6" y1="708.54" x2="57.1" y2="708.54" xlink:href="#grad_pre_24"/><linearGradient id="grad_pre_24-8" x1="45.6" y1="79.44" x2="57.1" y2="79.44" gradientTransform="matrix(1 0 0 -1 0 90.09)" xlink:href="#grad_pre_24"/><clipPath id="clip-path-3"><path class="cls-1" d="M45.6 9.2a23.3 23.3 0 0 0 .8 4.6c.2.1.5.2.7.3a9.83 9.83 0 0 0 1.6.5c.6.1 1.1.3 1.7.4s1.1.2 1.6.3c1.1.1 2.1.2 2.9.2h2.2a18.19 18.19 0 0 0-1.5-2.3 18.84 18.84 0 0 0-2.2-2.6c-.8-.8-1.6-1.5-2.3-2.1s-1.6-1.2-2.3-1.7c-.6-.3-1.1-.7-1.6-1-1.3.4-1.6 1.6-1.6 3.4"/></clipPath><linearGradient id="grad_pre_24-9" x1="-404.66" y1="565.51" x2="-404.02" y2="565.51" gradientTransform="matrix(25.11 31.18 31.18 -25.11 -7425.74 26821.6)" xlink:href="#grad_pre_24"/><linearGradient id="grad_pre_24-10" x1="60.2" y1="716.09" x2="69.4" y2="716.09" xlink:href="#grad_pre_24"/><linearGradient id="grad_pre_24-11" x1="60.2" y1="71.89" x2="69.4" y2="71.89" gradientTransform="matrix(1 0 0 -1 0 90.09)" xlink:href="#grad_pre_24"/><clipPath id="clip-path-4"><path class="cls-1" d="M64.2 10.5v.5a2 2 0 0 1-.1.7c0 .2-.1.5-.1.8a2.92 2.92 0 0 1-.2.9 13.36 13.36 0 0 1-.7 1.8 15 15 0 0 1-1.9 3.1 3.7 3.7 0 0 1-1 1.1l.1.2a6.89 6.89 0 0 0 .3.8c.2.6.4 1.1.6 1.6a9.36 9.36 0 0 1 .4 1.6c.1.5.2 1.1.3 1.6 0 .2.1.5.1.7.3-.2.7-.6 1.2-1s1.1-1.1 1.8-1.7a10.63 10.63 0 0 0 .9-1.1l.9-1.2c.3-.4.5-.8.8-1.2l.3-.6.3-.6.3-.6c.1-.2.1-.4.2-.6.1-.4.3-.8.4-1.1a4.4 4.4 0 0 0 .2-1c0-.3.1-.5.1-.8v-.3a26.39 26.39 0 0 0-5.2-3.6"/></clipPath><linearGradient id="grad_pre_24-12" x1="-404.67" y1="565.25" x2="-404.03" y2="565.25" gradientTransform="matrix(25.11 31.18 31.18 -25.11 -7412.96 26812.03)" xlink:href="#grad_pre_24"/><linearGradient id="grad_pre_24-13" x1="62.4" y1="721.19" x2="74.4" y2="721.19" xlink:href="#grad_pre_24"/><linearGradient id="grad_pre_24-14" x1="62.4" y1="66.79" x2="74.4" y2="66.79" gradientTransform="matrix(1 0 0 -1 0 90.09)" xlink:href="#grad_pre_24"/><clipPath id="clip-path-5"><path class="cls-1" d="M69.6 14.5c0 .2-.1.5-.1.8s-.1.6-.2 1-.2.7-.3 1.1c-.1.2-.1.4-.2.6l-.3.6-.3.6-.3.6c-.2.4-.5.9-.7 1.3s-.6.8-.8 1.2a10.63 10.63 0 0 1-.9 1.1c-.6.7-1.2 1.3-1.7 1.8s-1.1 1-1.4 1.2a10 10 0 0 1 .2 1.6 22.86 22.86 0 0 1 .2 2.5c0 .7.1 1.4.1 1.9v.1a36.09 36.09 0 0 0 11.5-11.2c-.1-2.3-2-4.8-4.7-7.2a.76.76 0 0 0-.1.4"/></clipPath><linearGradient id="grad_pre_24-15" x1="-404.67" y1="565.21" x2="-404.03" y2="565.21" gradientTransform="matrix(25.11 31.18 31.18 -25.11 -7412.13 26811.36)" xlink:href="#grad_pre_24"/><linearGradient id="grad_pre_24-16" x1="49" y1="724.19" x2="61.3" y2="724.19" xlink:href="#grad_pre_24"/><linearGradient id="grad_pre_24-17" x1="49" y1="63.79" x2="61.3" y2="63.79" gradientTransform="matrix(1 0 0 -1 0 90.09)" xlink:href="#grad_pre_24"/><clipPath id="clip-path-6"><path class="cls-1" d="M49 20c.3.5.5.9.8 1.4a37.13 37.13 0 0 0 11.5 11.2v-1.9a23.2 23.2 0 0 0-.2-2.4c-.1-.9-.2-1.8-.4-2.8l-.3-1.5c0-.2-.1-.4-.1-.6-.5 0-1.2-.1-2.2-.2-.8-.1-1.8-.3-2.8-.5-.5-.1-1-.3-1.5-.4s-1-.3-1.5-.5l-1.5-.6c-.5-.2-1-.5-1.4-.7a1.08 1.08 0 0 0-.4-.5z"/></clipPath><linearGradient id="grad_pre_24-18" x1="-404.69" y1="565.43" x2="-404.04" y2="565.43" gradientTransform="matrix(25.11 31.18 31.18 -25.11 -7428.07 26824.96)" xlink:href="#grad_pre_24"/><linearGradient id="grad_pre_24-19" x1="47.6" y1="706.84" x2="58" y2="706.84" xlink:href="#grad_pre_24"/><linearGradient id="grad_pre_24-20" x1="47.6" y1="81.14" x2="58" y2="81.14" gradientTransform="matrix(1 0 0 -1 0 90.09)" xlink:href="#grad_pre_24"/><clipPath id="clip-path-7"><path class="cls-1" d="M47.6 5.7c.5.3.9.5 1.5.8.8.5 1.5 1 2.4 1.6.4.3.8.7 1.2 1s.9.7 1.3 1.1a21.84 21.84 0 0 1 2.1 2.2 2.76 2.76 0 0 0 .6-.8 12.75 12.75 0 0 0 .7-1.2 8.8 8.8 0 0 0 .5-1.5 2.2 2.2 0 0 0 .1-.8v-.6a35.82 35.82 0 0 0-7.3-1.9h-.2a6.6 6.6 0 0 0-1.4-.1 5.42 5.42 0 0 0-1.5.2"/></clipPath><linearGradient id="grad_pre_24-21" x1="-404.67" y1="565.35" x2="-404.03" y2="565.35" gradientTransform="matrix(25.11 31.18 31.18 -25.11 -7418.9 26816.81)" xlink:href="#grad_pre_24"/><linearGradient id="grad_pre_24-22" x1="46.5" y1="716.29" x2="60.1" y2="716.29" xlink:href="#grad_pre_24"/><linearGradient id="grad_pre_24-23" x1="46.5" y1="71.69" x2="60.1" y2="71.69" gradientTransform="matrix(1 0 0 -1 0 90.09)" xlink:href="#grad_pre_24"/><clipPath id="clip-path-8"><path class="cls-1" d="M46.5 13.9a30.41 30.41 0 0 0 2.4 5.9 2.09 2.09 0 0 1 .6.4 6.11 6.11 0 0 0 1.4.7l1.5.6c.5.2 1 .3 1.5.5s1 .3 1.5.4c1 .2 1.9.3 2.7.4a15.56 15.56 0 0 0 2 .1c0-.2-.1-.3-.1-.5a9.83 9.83 0 0 0-.5-1.6 2.35 2.35 0 0 1-.2-.8l-.3-.8a11.11 11.11 0 0 0-.7-1.6c-.3-.5-.5-1-.8-1.6l-.1-.1c-.5 0-1.4 0-2.6-.1l-2.9-.3-1.6-.3a10.46 10.46 0 0 1-1.7-.4 7.49 7.49 0 0 1-1.6-.5 1 1 0 0 0-.5-.4z"/></clipPath><linearGradient id="grad_pre_24-24" x1="-404.67" y1="565.43" x2="-404.03" y2="565.43" gradientTransform="matrix(25.11 31.18 31.18 -25.11 -7425.55 26822.17)" xlink:href="#grad_pre_24"/></defs><path id="SVGID" class="cls-2" d="M73.9 5.6h-.2a17 17 0 0 0-2.2.4 41 41 0 0 0-9.3 3.2c6 2.7 11.3 6.6 13.1 10.4a25.82 25.82 0 0 0 3.2-10.5c.1-2.2-.5-3.6-3.3-3.6-.4 0-.8.1-1.3.1"/><path id="SVGID-2" data-name="SVGID" class="cls-3" d="M73.9 5.6h-.2a17 17 0 0 0-2.2.4 41 41 0 0 0-9.3 3.2c6 2.7 11.3 6.6 13.1 10.4a25.82 25.82 0 0 0 3.2-10.5c.1-2.2-.5-3.6-3.3-3.6-.4 0-.8.1-1.3.1"/><g class="cls-4"><path class="cls-5" d="M60.5 5.7l17.8-2.2 2 15.9-17.8 2.3-2-16z"/></g><path id="SVGID-3" data-name="SVGID" class="cls-6" d="M58.1 8.1a2 2 0 0 1-.1.8 7.49 7.49 0 0 1-.5 1.6c-.2.5-.4.9-.6 1.3a6.36 6.36 0 0 1-.6 1c.7.9 1.3 1.8 2 2.8.3.5.6 1.1.9 1.6s.5 1.1.8 1.6a8.18 8.18 0 0 0 .8-.9 18.17 18.17 0 0 0 2-2.9 7.66 7.66 0 0 0 .7-1.7 3.09 3.09 0 0 0 .2-.8c.1-.3.1-.5.2-.8s.1-.5.1-.7v-.6c-.7-.4-1.3-.7-2-1.1-1.3-.6-2.6-1.2-3.9-1.7v.5"/><path id="SVGID-4" data-name="SVGID" class="cls-7" d="M58.1 8.1a2 2 0 0 1-.1.8 7.49 7.49 0 0 1-.5 1.6c-.2.5-.4.9-.6 1.3a6.36 6.36 0 0 1-.6 1c.7.9 1.3 1.8 2 2.8.3.5.6 1.1.9 1.6s.5 1.1.8 1.6a8.18 8.18 0 0 0 .8-.9 18.17 18.17 0 0 0 2-2.9 7.66 7.66 0 0 0 .7-1.7 3.09 3.09 0 0 0 .2-.8c.1-.3.1-.5.2-.8s.1-.5.1-.7v-.6c-.7-.4-1.3-.7-2-1.1-1.3-.6-2.6-1.2-3.9-1.7v.5"/><g class="cls-8"><path class="cls-9" d="M61.1 3.8l8.5 10.6-10.2 8.2L50.9 12l10.2-8.2z"/></g><path id="SVGID-5" data-name="SVGID" class="cls-10" d="M45.6 9.2a23.3 23.3 0 0 0 .8 4.6c.2.1.5.2.7.3a9.83 9.83 0 0 0 1.6.5c.6.1 1.1.3 1.7.4s1.1.2 1.6.3c1.1.1 2.1.2 2.9.2h2.2a18.19 18.19 0 0 0-1.5-2.3 18.84 18.84 0 0 0-2.2-2.6c-.8-.8-1.6-1.5-2.3-2.1s-1.6-1.2-2.3-1.7c-.6-.3-1.1-.7-1.6-1-1.3.4-1.6 1.6-1.6 3.4"/><path id="SVGID-6" data-name="SVGID" class="cls-11" d="M45.6 9.2a23.3 23.3 0 0 0 .8 4.6c.2.1.5.2.7.3a9.83 9.83 0 0 0 1.6.5c.6.1 1.1.3 1.7.4s1.1.2 1.6.3c1.1.1 2.1.2 2.9.2h2.2a18.19 18.19 0 0 0-1.5-2.3 18.84 18.84 0 0 0-2.2-2.6c-.8-.8-1.6-1.5-2.3-2.1s-1.6-1.2-2.3-1.7c-.6-.3-1.1-.7-1.6-1-1.3.4-1.6 1.6-1.6 3.4"/><g class="cls-12"><path class="cls-13" d="M52.7 0L62 11.6l-11.8 9.5-9.3-11.6L52.7 0z"/></g><path id="SVGID-7" data-name="SVGID" class="cls-14" d="M64.2 10.5v.5a2 2 0 0 1-.1.7c0 .2-.1.5-.1.8a2.92 2.92 0 0 1-.2.9 13.36 13.36 0 0 1-.7 1.8 15 15 0 0 1-1.9 3.1 3.7 3.7 0 0 1-1 1.1l.1.2a6.89 6.89 0 0 0 .3.8c.2.6.4 1.1.6 1.6a9.36 9.36 0 0 1 .4 1.6c.1.5.2 1.1.3 1.6 0 .2.1.5.1.7.3-.2.7-.6 1.2-1s1.1-1.1 1.8-1.7a10.63 10.63 0 0 0 .9-1.1l.9-1.2c.3-.4.5-.8.8-1.2l.3-.6.3-.6.3-.6c.1-.2.1-.4.2-.6.1-.4.3-.8.4-1.1a4.4 4.4 0 0 0 .2-1c0-.3.1-.5.1-.8v-.3a26.39 26.39 0 0 0-5.2-3.6"/><path id="SVGID-8" data-name="SVGID" class="cls-15" d="M64.2 10.5v.5a2 2 0 0 1-.1.7c0 .2-.1.5-.1.8a2.92 2.92 0 0 1-.2.9 13.36 13.36 0 0 1-.7 1.8 15 15 0 0 1-1.9 3.1 3.7 3.7 0 0 1-1 1.1l.1.2a6.89 6.89 0 0 0 .3.8c.2.6.4 1.1.6 1.6a9.36 9.36 0 0 1 .4 1.6c.1.5.2 1.1.3 1.6 0 .2.1.5.1.7.3-.2.7-.6 1.2-1s1.1-1.1 1.8-1.7a10.63 10.63 0 0 0 .9-1.1l.9-1.2c.3-.4.5-.8.8-1.2l.3-.6.3-.6.3-.6c.1-.2.1-.4.2-.6.1-.4.3-.8.4-1.1a4.4 4.4 0 0 0 .2-1c0-.3.1-.5.1-.8v-.3a26.39 26.39 0 0 0-5.2-3.6"/><g class="cls-16"><path class="cls-17" d="M65.9 5.9l11.2 13.9-13.2 10.6-11.2-13.9L65.9 5.9z"/></g><path id="SVGID-9" data-name="SVGID" class="cls-18" d="M69.6 14.5c0 .2-.1.5-.1.8s-.1.6-.2 1-.2.7-.3 1.1c-.1.2-.1.4-.2.6l-.3.6-.3.6-.3.6c-.2.4-.5.9-.7 1.3s-.6.8-.8 1.2a10.63 10.63 0 0 1-.9 1.1c-.6.7-1.2 1.3-1.7 1.8s-1.1 1-1.4 1.2a10 10 0 0 1 .2 1.6 22.86 22.86 0 0 1 .2 2.5c0 .7.1 1.4.1 1.9v.1a36.09 36.09 0 0 0 11.5-11.2c-.1-2.3-2-4.8-4.7-7.2a.76.76 0 0 0-.1.4"/><path id="SVGID-10" data-name="SVGID" class="cls-19" d="M69.6 14.5c0 .2-.1.5-.1.8s-.1.6-.2 1-.2.7-.3 1.1c-.1.2-.1.4-.2.6l-.3.6-.3.6-.3.6c-.2.4-.5.9-.7 1.3s-.6.8-.8 1.2a10.63 10.63 0 0 1-.9 1.1c-.6.7-1.2 1.3-1.7 1.8s-1.1 1-1.4 1.2a10 10 0 0 1 .2 1.6 22.86 22.86 0 0 1 .2 2.5c0 .7.1 1.4.1 1.9v.1a36.09 36.09 0 0 0 11.5-11.2c-.1-2.3-2-4.8-4.7-7.2a.76.76 0 0 0-.1.4"/><g class="cls-20"><path class="cls-21" d="M69.5 8.3l13.8 17.1L67 38.5 53.2 21.4 69.5 8.3z"/></g><path id="SVGID-11" data-name="SVGID" class="cls-22" d="M49 20c.3.5.5.9.8 1.4a37.13 37.13 0 0 0 11.5 11.2v-1.9a23.2 23.2 0 0 0-.2-2.4c-.1-.9-.2-1.8-.4-2.8l-.3-1.5c0-.2-.1-.4-.1-.6-.5 0-1.2-.1-2.2-.2-.8-.1-1.8-.3-2.8-.5-.5-.1-1-.3-1.5-.4s-1-.3-1.5-.5l-1.5-.6c-.5-.2-1-.5-1.4-.7a1.08 1.08 0 0 0-.4-.5z"/><path id="SVGID-12" data-name="SVGID" class="cls-23" d="M49 20c.3.5.5.9.8 1.4a37.13 37.13 0 0 0 11.5 11.2v-1.9a23.2 23.2 0 0 0-.2-2.4c-.1-.9-.2-1.8-.4-2.8l-.3-1.5c0-.2-.1-.4-.1-.6-.5 0-1.2-.1-2.2-.2-.8-.1-1.8-.3-2.8-.5-.5-.1-1-.3-1.5-.4s-1-.3-1.5-.5l-1.5-.6c-.5-.2-1-.5-1.4-.7a1.08 1.08 0 0 0-.4-.5z"/><g class="cls-24"><path class="cls-25" d="M56.5 14l10.9 13.6-13.6 11-10.9-13.7L56.5 14z"/></g><path id="SVGID-13" data-name="SVGID" class="cls-26" d="M47.6 5.7c.5.3.9.5 1.5.8.8.5 1.5 1 2.4 1.6.4.3.8.7 1.2 1s.9.7 1.3 1.1a21.84 21.84 0 0 1 2.1 2.2 2.76 2.76 0 0 0 .6-.8 12.75 12.75 0 0 0 .7-1.2 8.8 8.8 0 0 0 .5-1.5 2.2 2.2 0 0 0 .1-.8v-.6a35.82 35.82 0 0 0-7.3-1.9h-.2a6.6 6.6 0 0 0-1.4-.1 5.42 5.42 0 0 0-1.5.2"/><path id="SVGID-14" data-name="SVGID" class="cls-27" d="M47.6 5.7c.5.3.9.5 1.5.8.8.5 1.5 1 2.4 1.6.4.3.8.7 1.2 1s.9.7 1.3 1.1a21.84 21.84 0 0 1 2.1 2.2 2.76 2.76 0 0 0 .6-.8 12.75 12.75 0 0 0 .7-1.2 8.8 8.8 0 0 0 .5-1.5 2.2 2.2 0 0 0 .1-.8v-.6a35.82 35.82 0 0 0-7.3-1.9h-.2a6.6 6.6 0 0 0-1.4-.1 5.42 5.42 0 0 0-1.5.2"/><g class="cls-28"><path class="cls-29" d="M53.9.5l7.4 9.2-9.6 7.8-7.5-9.3L53.9.5z"/></g><path id="SVGID-15" data-name="SVGID" class="cls-30" d="M46.5 13.9a30.41 30.41 0 0 0 2.4 5.9 2.09 2.09 0 0 1 .6.4 6.11 6.11 0 0 0 1.4.7l1.5.6c.5.2 1 .3 1.5.5s1 .3 1.5.4c1 .2 1.9.3 2.7.4a15.56 15.56 0 0 0 2 .1c0-.2-.1-.3-.1-.5a9.83 9.83 0 0 0-.5-1.6 2.35 2.35 0 0 1-.2-.8l-.3-.8a11.11 11.11 0 0 0-.7-1.6c-.3-.5-.5-1-.8-1.6l-.1-.1c-.5 0-1.4 0-2.6-.1l-2.9-.3-1.6-.3a10.46 10.46 0 0 1-1.7-.4 7.49 7.49 0 0 1-1.6-.5 1 1 0 0 0-.5-.4z"/><path id="SVGID-16" data-name="SVGID" class="cls-31" d="M46.5 13.9a30.41 30.41 0 0 0 2.4 5.9 2.09 2.09 0 0 1 .6.4 6.11 6.11 0 0 0 1.4.7l1.5.6c.5.2 1 .3 1.5.5s1 .3 1.5.4c1 .2 1.9.3 2.7.4a15.56 15.56 0 0 0 2 .1c0-.2-.1-.3-.1-.5a9.83 9.83 0 0 0-.5-1.6 2.35 2.35 0 0 1-.2-.8l-.3-.8a11.11 11.11 0 0 0-.7-1.6c-.3-.5-.5-1-.8-1.6l-.1-.1c-.5 0-1.4 0-2.6-.1l-2.9-.3-1.6-.3a10.46 10.46 0 0 1-1.7-.4 7.49 7.49 0 0 1-1.6-.5 1 1 0 0 0-.5-.4z"/><g class="cls-32"><path class="cls-33" d="M54.8 7.2l9.8 12.1-12.7 10.3-9.8-12.2L54.8 7.2z"/></g><path d="M27.5 41.5a.9.9 0 0 0-.9.9c0 6.5-5.6 11.7-12.4 11.7S1.8 48.8 1.8 42.4a.9.9 0 0 0-1.8 0c0 7.4 6.4 13.5 14.2 13.5s14.2-6.1 14.2-13.5a.9.9 0 0 0-.9-.9m19.1 0a14.24 14.24 0 0 0-12.4 7v-6.1a.9.9 0 0 0-1.8 0v12.7a.9.9 0 1 0 1.8 0c0-6.5 5.6-11.7 12.4-11.7S59 48.7 59 55.1a.9.9 0 1 0 1.8 0c0-7.5-6.4-13.6-14.2-13.6m32.3 0a14.24 14.24 0 0 0-12.4 7v-6.1a.9.9 0 0 0-1.8 0v12.7a.9.9 0 1 0 1.8 0c0-6.5 5.6-11.7 12.4-11.7s12.4 5.3 12.4 11.7a.9.9 0 1 0 1.8 0c0-7.5-6.3-13.6-14.2-13.6m19.5 12.4a12.19 12.19 0 0 1 12.3-10.6 12.5 12.5 0 0 1 10.6 5.6zm33.3-6.3a.92.92 0 0 0-1.1-.7l-7.5 1.6a14.24 14.24 0 0 0-12.4-7c-7.8 0-14.2 6.1-14.2 13.5a.91.91 0 0 0 .3.7 1.42 1.42 0 0 0 .6.2h.2l24.5-5.4a11.3 11.3 0 0 1 .9 4.5.9.9 0 1 0 1.8 0 11.62 11.62 0 0 0-1-4.9l7.1-1.6c.6 0 1-.5.8-.9"/><path class="cls-34" d="M33.5 67.8c0 1.9 1 3.2 2.5 3.2s2.4-1.3 2.4-3.2-.8-3.2-2.3-3.2c-1.7.1-2.6 1.4-2.6 3.2m0 5.2c0 .4-.3.6-.7.6s-.7-.2-.7-.6v-8.8c0-.4.3-.6.7-.6s.7.2.7.6v.3a2.2 2.2 0 0 1-.1.8 2.79 2.79 0 0 1 2.8-1.8c2.2 0 3.5 1.6 3.5 4.3s-1.3 4.4-3.6 4.4a2.8 2.8 0 0 1-2.7-1.7 2.77 2.77 0 0 1 .1.9zM56 67.8a7.16 7.16 0 0 0-3.2.5 1.55 1.55 0 0 0-.9 1.5 1.32 1.32 0 0 0 1.5 1.3 3 3 0 0 0 2.2-1.1 1.59 1.59 0 0 0 .4-1.2zm0-1.8c0-1-.5-1.4-1.7-1.4a1.77 1.77 0 0 0-1.9 1.1.55.55 0 0 1-.6.4.37.37 0 0 1-.3-.1.63.63 0 0 1-.5-.6v-.2a2.15 2.15 0 0 1 .9-1.2 3.61 3.61 0 0 1 2.4-.7c2 0 3 .8 3 2.6v4.2a4.44 4.44 0 0 0 .2 1.3v.1c0 .2-.2.4-.6.5h-.1c-.3 0-.6-.1-.6-.4s-.1-.4-.1-.7a3.68 3.68 0 0 1-2.8 1.2 2.34 2.34 0 0 1-2.6-2.5 2.67 2.67 0 0 1 2.3-2.7 12.22 12.22 0 0 1 3.2-.3V66zm14-1.8c0-.4.3-.6.7-.6s.7.2.7.6v.3c0 .2-.1.5-.1.7a2.57 2.57 0 0 1 2.3-1.7h.3a1.27 1.27 0 0 1 .6.1.54.54 0 0 1 .5.5v.3c-.1.3-.3.6-.6.6h-.1c-.2 0-.4-.1-.7-.1a1.9 1.9 0 0 0-1.5.8 2.52 2.52 0 0 0-.6 1.7v4.1c0 .4-.3.6-.7.6s-.7-.2-.7-.6l-.1-7.3zm17.4 7.3c0 .4-.3.6-.7.6s-.7-.2-.7-.6v-9c0-.4.3-.6.7-.6s.7.2.7.6v5l3.6-3.6a.64.64 0 1 1 .9.9l-2.5 2.4 3 4a.37.37 0 0 1 .1.3.86.86 0 0 1-.3.6.6.6 0 0 1-.4.1.76.76 0 0 1-.5-.2l-2.8-3.9-1.1 1.1z"/><path d="M4.8 85.9h-3l-.7 1.7h-1l2.7-6.4h.8l2.7 6.4h-1zm-2.7-.7h2.4l-1.2-3zm9.7-.5h-.9v2.9H10v-6.4h.9V84h.7l2.5-2.8h1.2l-2.7 3.1 2.9 3.3h-1.2zm11.8-2.8h-2.3v5.7h-.9v-5.7h-2.3v-.7h5.5zm7.9-.7h.9v6.4h-.9v-4.9L28 87.6h-.9v-6.4h.9v4.9zm5.1 6.4v-6.4h2.3a3 3 0 0 1 1.8.4 1.49 1.49 0 0 1 .6 1.3 1.14 1.14 0 0 1-.3.8 1.58 1.58 0 0 1-.8.5 1.46 1.46 0 0 1 .9.6 1.69 1.69 0 0 1 .3 1 1.82 1.82 0 0 1-.6 1.4 3 3 0 0 1-1.8.5h-2.4zm1-3.7H39a1.69 1.69 0 0 0 1-.3 1 1 0 0 0 .4-.8 1 1 0 0 0-.3-.8 1.5 1.5 0 0 0-1-.2h-1.4v2.1zm0 .7v2.3h1.6a1.49 1.49 0 0 0 1-.3 1.23 1.23 0 0 0 .4-.8c0-.8-.5-1.2-1.4-1.2zm13.3 3H50v-3h-3.7v3h-.9v-6.4h.9V84h3.6v-2.8h.9v6.4zm5.1-3.8h1.8a2.86 2.86 0 0 1 1.7.5 1.68 1.68 0 0 1 .6 1.4 1.82 1.82 0 0 1-.6 1.4 2.31 2.31 0 0 1-1.7.5h-2.7v-6.4h.9zm0 .7v2.4h1.7a1.8 1.8 0 0 0 1.1-.3 1 1 0 0 0 .4-.9 1.09 1.09 0 0 0-.4-.9c-.3-.3-.6-.3-1.1-.3zm6 3.1h-.9v-6.4h.9zm8.8-6.4h.9v6.4h-.9v-4.9l-3.5 4.9h-1v-6.4h.9v4.9zm-.3-1.6a1.09 1.09 0 0 1-.4.9 1.8 1.8 0 0 1-1.1.3 2 2 0 0 1-1.1-.3 1 1 0 0 1-.4-.9h.7a.7.7 0 1 0 1.4 0zm16.8 9.6h-.9v-1.6h-5.1v1.6h-1v-2.3h.6a2.33 2.33 0 0 0 .7-1.3 10.11 10.11 0 0 0 .3-1.7l.2-2.7h4.3v5.7h.9zM82 86.9h3.5v-5h-2.4l-.1 1.9a9.47 9.47 0 0 1-.3 1.9c-.3.5-.5.9-.7 1.2zm14.5-2.3a2.73 2.73 0 0 1-.4 1.6 2.66 2.66 0 0 1-1 1.1 3.31 3.31 0 0 1-1.5.4 2.41 2.41 0 0 1-1.5-.4 2.66 2.66 0 0 1-1-1.1 4.19 4.19 0 0 1-.4-1.6v-.5a2.73 2.73 0 0 1 .4-1.6 2.66 2.66 0 0 1 1-1.1 3 3 0 0 1 3 0 2.17 2.17 0 0 1 1 1.1 4.19 4.19 0 0 1 .4 1.6zm-1-.4a2.65 2.65 0 0 0-.5-1.7 1.93 1.93 0 0 0-2.8 0 2.86 2.86 0 0 0-.5 1.7v.5a2.86 2.86 0 0 0 .5 1.7 1.93 1.93 0 0 0 2.8 0 2.86 2.86 0 0 0 .5-1.7zm6.1-3l2.3 5.2 2.3-5.2h1.2v6.4h-.9v-2.5l.1-2.7-2.3 5.2h-.7l-2.3-5.2.1 2.7v2.5h-.9v-6.4zm19.8 6.4h-1l-2.9-5v5h-.9v-6.4h1l2.9 5v-5h.9zm.8-5a1.43 1.43 0 0 1 .5-1.1 2 2 0 0 1 2.4 0 1.43 1.43 0 0 1 .5 1.1v.4a1.43 1.43 0 0 1-.5 1.1 2 2 0 0 1-2.4 0 1.43 1.43 0 0 1-.5-1.1zm3.2 3.2h-3v-.6h3zm-2.4-2.7a1.45 1.45 0 0 0 .2.7.86.86 0 0 0 1.5-.7v-.4a1.45 1.45 0 0 0-.2-.7.86.86 0 0 0-1.5.7zm6.7 4.5h-.9v-5.4l-1.8.6v-.7l2.6-.9h.1v6.4z"/></svg>