<svg xmlns="http://www.w3.org/2000/svg" viewBox="0 0 205.12 47.8"><defs><style>.cls-1{fill:#fff}</style></defs><title>unna-development</title><g id="Слой_2" data-name="Слой 2"><g id="Layer_1" data-name="Layer 1"><path class="cls-1" d="M42.8 0a1.37 1.37 0 0 0-1.4 1.4c0 10.1-8.6 18.3-19.3 18.3S2.8 11.5 2.8 1.4A1.37 1.37 0 0 0 1.4 0 1.37 1.37 0 0 0 0 1.4c0 11.6 9.9 21 22 21s22-9.4 22-21A1.16 1.16 0 0 0 42.8 0m29.8 0a22.4 22.4 0 0 0-19.3 10.8V1.4a1.4 1.4 0 1 0-2.8 0V21a1.4 1.4 0 1 0 2.8 0c0-10.1 8.6-18.3 19.3-18.3S91.9 10.9 91.9 21a1.4 1.4 0 1 0 2.8 0c-.1-11.5-10-21-22.1-21m50.3 0a22.4 22.4 0 0 0-19.3 10.8V1.4a1.4 1.4 0 1 0-2.8 0V21a1.4 1.4 0 1 0 2.8 0c0-10.1 8.6-18.3 19.3-18.3s19.3 8.2 19.3 18.3a1.4 1.4 0 1 0 2.8 0c-.1-11.5-9.9-21-22.1-21m30.3 19.3c.9-9.3 9.2-16.5 19.2-16.5a19.59 19.59 0 0 1 16.4 8.7zm51.9-9.9a1.51 1.51 0 0 0-1.6-1.1l-11.7 2.6A22.27 22.27 0 0 0 172.5 0c-12.2 0-22 9.4-22 21a1.61 1.61 0 0 0 .5 1.1 1.4 1.4 0 0 0 .9.3h.3l38.2-8.3a18.29 18.29 0 0 1 1.5 7 1.4 1.4 0 0 0 2.8 0 19.44 19.44 0 0 0-1.5-7.6l11-2.4a1.6 1.6 0 0 0 .9-1.7"/><path stroke="#fff" fill="#fff" d="M12.6 38.4H9.7v9.3h2.6a5.31 5.31 0 0 0 3.7-1.2 4.46 4.46 0 0 0 1.3-3.5 4.7 4.7 0 0 0-1.2-3.4 4.79 4.79 0 0 0-3.5-1.2zm-.3 8h-1.1v-6.7h1.3c2.1 0 3.1 1.1 3.1 3.3s-1 3.4-3.3 3.4zm16.2 1.3h5.3v-1.3H30v-2.9h3.5v-1.3H30v-2.5h3.8v-1.3h-5.3zm19.8-3.5a4.65 4.65 0 0 0-.3.9c-.1.4-.2.8-.3 1.1a8.38 8.38 0 0 0-.2-1c-.1-.4-.2-.8-.3-1.1l-1.9-5.8h-1.6l3.3 9.3h1.6l3.3-9.3h-1.6zm13.9 3.5h5.3v-1.3h-3.8v-2.9h3.5v-1.3h-3.5v-2.5h3.8v-1.3h-5.3zm18-9.3h-1.5v9.3h5.5v-1.3h-4zm18.6-.1a4.46 4.46 0 0 0-3.3 1.2 4.76 4.76 0 0 0-1.1 3.5 5.23 5.23 0 0 0 1.1 3.5 4.22 4.22 0 0 0 3.2 1.2 3.82 3.82 0 0 0 3.2-1.3 4.76 4.76 0 0 0 1.1-3.5 5.23 5.23 0 0 0-1.1-3.5 4 4 0 0 0-3.1-1.1zm2 7.4a2.45 2.45 0 0 1-2.1.9 2.58 2.58 0 0 1-2.1-.9 4 4 0 0 1-.7-2.6 4 4 0 0 1 .7-2.6 2.58 2.58 0 0 1 2.1-.9 2.26 2.26 0 0 1 2 .9 4.48 4.48 0 0 1 .7 2.6 3.5 3.5 0 0 1-.6 2.6zm16.2-7.3h-2.7v9.3h1.5v-3.5h1a4.14 4.14 0 0 0 2.7-.8 2.87 2.87 0 0 0 1-2.2 2.58 2.58 0 0 0-.9-2.1 4.48 4.48 0 0 0-2.6-.7zm1.4 4.1a2.67 2.67 0 0 1-1.7.4h-.8v-3.3h1.1a2.08 2.08 0 0 1 1.5.4 1.66 1.66 0 0 1 .5 1.2 1.76 1.76 0 0 1-.6 1.3zm17.9 3.3l-2.6-7.4h-2.2v9.3h1.4v-4.5c0-1 0-2.1-.1-3.2h.1l2.7 7.7h1.3l2.8-7.7h.1a8.47 8.47 0 0 1-.1 1.3v6.4h1.5v-9.3H139zm16.4 1.9h5.3v-1.3h-3.8v-2.9h3.5v-1.3h-3.5v-2.5h3.8v-1.3h-5.3zm22.8-4.4v1.4a2.53 2.53 0 0 0 .1 1.1l-4.6-7.3h-1.9v9.3h1.4V43a17 17 0 0 0-.1-2.2v-.4h.1l4.6 7.4h1.9v-9.4h-1.5zm12-4.9v1.3h2.7v8h1.5v-8h2.7v-1.3z"/></g></g></svg>